<svg width="86" height="40" viewBox="0 0 86 40" fill="none" xmlns="http://www.w3.org/2000/svg">
<g id="Brand Logo">
<path id="petpooja icon" fill-rule="evenodd" clip-rule="evenodd" d="M78.4513 30.251C78.0762 30.8652 77.5377 31.3565 76.8995 31.6669C76.2613 31.9773 75.5499 32.0939 74.8492 32.003C74.1485 31.912 73.4878 31.6173 72.9449 31.1536C72.402 30.69 71.9996 30.0766 71.7852 29.386C70.6161 25.4624 73.2338 19.7537 75.9983 18.5354C76.3871 18.3582 76.8062 18.2614 77.2316 18.2505C77.6569 18.2397 78.0802 18.315 78.4771 18.4723C79.1425 18.6759 79.429 19.3822 79.5252 19.3822C79.7066 19.3822 79.7592 18.4723 80.7993 18.2901C81.0848 18.2201 81.3822 18.2189 81.6682 18.2866C81.9542 18.3543 82.221 18.4891 82.4478 18.6803C82.6746 18.8716 82.8551 19.1141 82.9753 19.389C83.0954 19.6639 83.1519 19.9636 83.1404 20.2646C83.2961 22.7317 81.191 24.7072 81.3804 27.5397C81.4409 28.4323 81.7958 29.0328 82.3164 29.1417C83.894 29.4694 84.0585 27.1743 85.4814 27.1661C86.473 30.5788 80.0279 34.4209 78.4513 30.2521V30.251ZM78.5723 24.3327C77.2377 23.951 78.2511 22.3673 77.8703 21.1196C75.2625 19.8178 74.3344 27.1652 75.6423 28.4028C77.3676 30.0231 78.6417 25.9611 78.5723 24.3327ZM67.5483 14.102C67.5101 13.7975 67.5313 13.4883 67.6106 13.1924C67.69 12.8964 67.8259 12.6197 68.0104 12.3781C68.195 12.1366 68.4245 11.9352 68.6856 11.7856C68.9467 11.6359 69.2342 11.5411 69.5314 11.5066C71.0038 11.1698 72.044 11.7163 72.2274 13.1087C72.624 16.2047 67.6772 17.5156 67.5483 14.102ZM69.0356 18.5537C69.5302 18.554 70.0087 18.7342 70.3861 19.0623C70.7635 19.3905 71.0154 19.8453 71.097 20.346C71.1955 20.7631 71.2289 21.1935 71.1962 21.6213C71.0138 24.4436 70.2235 26.9199 69.5582 30.4973C69.2895 31.9222 69.0892 33.8753 68.8214 35.231H86L85.064 35.859H68.6747C68.6001 36.0914 68.5131 36.3194 68.4139 36.542H84.128L83.1919 37.1974H68.1799C68.0411 37.5617 67.8824 37.5251 67.704 37.808H82.2559L81.3199 38.4717H67.1229C67.0882 38.4991 67.0624 38.5256 67.0238 38.5551C65.4115 39.811 61.0001 39.1199 60.4974 35.7694C59.8717 31.5813 63.2737 36.7791 64.4566 34.4769C65.8349 31.8012 65.8091 27.8226 66.5101 23.9612C65.7558 24.3491 64.9739 24.6778 64.1711 24.9444C63.8577 28.9595 62.0204 32.9105 57.8529 32.0994C55.149 31.5803 53.8312 28.0761 54.5808 24.4528C54.0851 24.5902 53.7053 24.8436 53.1758 24.9454C53.6964 30.0342 48.1189 34.5868 44.7477 30.8709C41.3149 27.0847 44.4016 18.1181 49.1938 18.1629C51.5427 18.1893 52.8169 20.1751 53.1808 22.7328C56.1455 22.5139 56.2754 18.9181 59.1439 18.2901C61.9004 17.6794 63.9549 19.8097 64.18 22.7328C65.1007 22.6656 65.9703 22.2732 66.641 21.6224C66.565 20.9883 66.6898 20.3459 66.997 19.7903C67.2044 19.4197 67.5021 19.1108 67.8608 18.8938C68.2196 18.6768 68.6272 18.5593 69.0435 18.5527L69.0356 18.5537ZM48.7238 21.0025C46.6167 21.7852 46.0803 26.4985 47.7868 28.1575C49.9979 28.8038 50.57 26.7458 50.9508 25.0726C48.9836 25.0522 48.3153 22.7592 48.7238 21.0015V21.0025ZM59.7299 21.0025C57.615 21.7852 57.0865 26.4985 58.7939 28.1575C61.0041 28.8038 61.5703 26.7458 61.948 25.0726C59.9818 25.0522 59.3135 22.7592 59.7299 21.0015V21.0025ZM36.1648 30.2958C35.466 30.4478 34.7416 30.421 34.0553 30.2177C33.369 30.0145 32.7419 29.6411 32.2294 29.1305C32.2294 29.1305 31.9517 31.625 31.926 32.5522C31.9002 33.4794 32.0251 36.6122 31.5452 37.7317C31.0653 38.8513 30.392 40.3912 28.1214 39.1709C25.8508 37.9506 27.4461 32.0342 28.0341 29.3951C28.6221 26.756 29.9329 20.4743 29.7852 18.5242C29.6218 17.1779 29.5668 15.82 29.6206 14.4643C29.6206 14.4643 29.2309 12.0064 31.3538 11.9789C33.4767 11.9514 33.7633 13.9361 33.9011 15.7844C33.9011 15.7844 36.4791 11.014 40.0904 11.4965C43.7016 11.9789 44.12 16.9039 43.3139 21.1653C42.5078 25.4268 40.1161 29.3595 36.1648 30.2969V30.2958ZM36.5714 17.0088C34.3959 17.5553 33.4599 24.2727 33.4599 24.2727C34.5605 28.2053 36.5892 26.2858 36.9957 25.8196C37.8692 24.5059 38.4193 22.9944 38.5991 21.4147C38.7557 19.5298 38.7478 16.4714 36.5724 17.0078L36.5714 17.0088ZM24.3595 29.0949C25.581 28.9127 25.7972 27.3199 26.9157 27.0746C27.7565 28.012 26.76 29.3401 25.9965 30.2144C25.2618 31.1427 24.2714 31.8219 23.1547 32.1635C22.7025 32.3186 22.2231 32.3723 21.7488 32.3209C21.2746 32.2696 20.8167 32.1144 20.4059 31.8659C19.9951 31.6174 19.641 31.2813 19.3675 30.8804C19.0941 30.4794 18.9076 30.0229 18.8207 29.5417C18.1791 30.3339 17.3905 30.9873 16.5008 31.4639C15.6111 31.9406 14.6379 32.2309 13.6379 32.3181H13.5595C12.2232 32.2856 10.9517 31.7201 10.0147 30.7416C7.0163 27.2181 9.25224 20.3186 12.8496 18.4611C15.3284 17.1879 18.2753 18.4886 18.0413 21.5389C17.8252 24.3785 14.8773 26.2451 12.2903 26.5555C12.3664 27.0661 12.5613 27.5502 12.8586 27.9669C13.1558 28.3837 13.5466 28.7207 13.9978 28.9493C15.9135 29.7045 18.3913 27.9753 18.8256 26.928C18.9661 26.4638 19.0618 25.9866 19.1112 25.5031C19.3799 23.9632 19.6575 22.6534 19.96 21.1613C17.6546 21.4982 17.8113 17.938 20.3159 18.6169C20.5668 15.6765 20.0383 10.4237 23.5137 11.6522C25.2737 12.271 24.6926 15.6765 24.293 17.5696C25.0863 17.0973 26.529 16.1447 26.997 17.4159C27.7902 19.6275 25.1854 20.9781 23.5127 21.1583C23.3045 22.3134 23.0704 23.3607 22.8711 24.753C22.6124 26.6451 22.1533 29.4348 24.3634 29.0939L24.3595 29.0949ZM14.7732 21.0799C13.03 19.6957 12.1555 23.1093 12.1386 24.9749C12.5655 24.907 12.9745 24.7507 13.3408 24.5155C13.7071 24.2804 14.023 23.9713 14.2694 23.6071C14.5157 23.2428 14.6874 22.831 14.774 22.3966C14.8607 21.9621 14.8604 21.5142 14.7732 21.0799ZM6.95582 17.6571C5.94147 20.569 7.16305 29.8195 4.79821 31.6943C4.25893 32.0531 3.63749 32.2608 2.99574 32.2965C2.35398 32.3322 1.71431 32.1948 1.14039 31.8978C0.72827 31.4544 0.414828 30.9245 0.221722 30.3446C0.0286161 29.7647 -0.0395509 29.1487 0.0219289 28.5391C0.984722 22.122 2.71795 13.7183 2.92617 6.49919C2.22416 6.60097 1.47851 8.00041 0.394751 7.69203C-0.376673 6.59079 0.699156 5.48852 1.33077 4.82493C3.76373 2.41183 6.88139 0.855642 10.2329 0.381348H12.4777C17.1747 0.736552 21.1627 3.28505 20.9059 8.57444C20.6084 14.8643 13.504 18.052 6.95185 17.6601L6.95582 17.6571ZM9.1055 4.32418C9.00039 4.3425 9.00039 4.47889 9.00634 4.61527C8.72077 8.19276 7.86209 11.1789 7.41986 14.5895C10.6444 14.3981 13.3483 13.3681 14.441 11.0273C16.2615 7.15971 13.1153 4.10639 9.10252 4.31809L9.1055 4.32418Z" fill="#C52031" style="fill:#C52031;fill:color(display-p3 0.7725 0.1255 0.1922);fill-opacity:1;"/>
</g>
</svg>
